<svg width="23" height="23" viewBox="0 0 23 23"  xmlns="http://www.w3.org/2000/svg">
<path d="M22.9304 10.2266C22.8906 9.89834 22.5125 9.65958 22.1942 9.65958C21.1397 9.65958 20.2046 9.0428 19.8166 8.08778C19.4187 7.10292 19.6773 5.96884 20.4632 5.24263C20.7119 5.01382 20.7418 4.63579 20.5329 4.37714C19.9957 3.69072 19.3789 3.07394 18.7124 2.53674C18.4537 2.32783 18.0657 2.35768 17.8369 2.60638C17.1505 3.36244 15.917 3.65093 14.9719 3.25301C13.9771 2.83519 13.3603 1.83043 13.42 0.756036C13.4399 0.417801 13.1912 0.119358 12.8529 0.0795654C11.9974 -0.0199155 11.122 -0.0199155 10.2664 0.0696173C9.93815 0.10941 9.68945 0.397904 9.6994 0.726192C9.73919 1.79064 9.10251 2.7755 8.1276 3.18337C7.18253 3.57135 5.95891 3.28285 5.28244 2.53674C5.05363 2.28804 4.67561 2.2582 4.41696 2.46711C3.73054 3.00431 3.10381 3.63103 2.55666 4.30751C2.34775 4.56616 2.3776 4.95413 2.6263 5.18294C3.42215 5.90915 3.6808 7.06313 3.27293 8.05794C2.875 9.00301 1.89014 9.60984 0.766005 9.60984C0.397925 9.59989 0.139275 9.83865 0.0994826 10.1769C1.58511e-06 11.0424 1.58511e-06 11.9178 0.0994826 12.7932C0.139275 13.1215 0.527251 13.3603 0.855538 13.3603C1.8603 13.3304 2.81531 13.9572 3.22319 14.942C3.62111 15.9169 3.36246 17.061 2.57656 17.7872C2.32786 18.016 2.29801 18.394 2.50692 18.6527C3.04412 19.3291 3.65095 19.9559 4.32742 20.4931C4.59602 20.702 4.97405 20.6721 5.20286 20.4234C5.88927 19.6574 7.12284 19.3789 8.06791 19.7768C9.06272 20.1946 9.68945 21.1994 9.61981 22.2738C9.59991 22.612 9.84862 22.9104 10.1869 22.9502C10.6246 23 11.0722 23.0298 11.5099 23.0298C11.9278 23.0298 12.3555 23.0099 12.7734 22.9602C13.1116 22.9204 13.3503 22.6319 13.3404 22.3036C13.3006 21.2392 13.9373 20.2543 14.9122 19.8464C15.8573 19.4585 17.0809 19.7469 17.7574 20.4931C17.9862 20.7418 18.3642 20.7716 18.6228 20.5627C19.3093 20.0255 19.936 19.4087 20.4831 18.7223C20.692 18.4636 20.6622 18.0757 20.4135 17.8469C19.6176 17.1207 19.349 15.9667 19.7669 14.9818C20.1548 14.0467 21.0999 13.42 22.1246 13.42H22.2638C22.5921 13.4498 22.9005 13.1912 22.9403 12.8529C23.0298 11.9775 23.0298 11.0921 22.9304 10.2266ZM11.5 18.2746C7.75952 18.2746 4.7353 15.2405 4.7353 11.5099C4.7353 7.76944 7.76946 4.73527 11.5 4.73527C15.2405 4.73527 18.2647 7.76944 18.2647 11.5099C18.2747 15.2405 15.2405 18.2746 11.5 18.2746Z" fill="url(#paint0_linear_2_107)"/>
<defs>
<linearGradient id="paint0_linear_2_107" x1="0.0289967" y1="11.5345" x2="22.9961" y2="11.5345" gradientUnits="userSpaceOnUse">
<stop offset="1.38522e-07" stop-color="#ED364A"/>
<stop offset="1" stop-color="#F1287C"/>
</linearGradient>
</defs>
</svg>
