<svg width="211" height="73" viewBox="0 0 211 73" fill="none" xmlns="http://www.w3.org/2000/svg">
<rect width="211" height="73" fill="#212121"/>
<path d="M149.767 41.462L133.814 10.7514C133.415 9.95376 132.457 9.63469 131.58 9.95376L124.401 13.0647C124.162 13.1445 123.843 13.0647 123.683 12.7456L123.444 12.1075C123.364 11.8682 123.444 11.5491 123.763 11.3896L130.942 8.27865C132.617 7.56074 134.611 8.27865 135.409 9.874L151.362 40.5845L149.767 41.462Z" fill="#FFEE99"/>
<path d="M157.505 43.2966L148.731 47.0457C146.577 48.0029 144.104 47.1255 142.987 45.0515L129.985 20.9617C129.666 20.3236 129.905 19.4461 130.623 19.2068L150.007 10.911C150.725 10.5919 151.522 10.9908 151.762 11.7087L160.137 37.7927C160.775 40.0262 159.659 42.3394 157.505 43.2966ZM131.022 20.3236L139.477 36.0378C142.828 42.2597 150.485 44.9718 157.026 42.1799C158.622 41.5418 159.419 39.7869 158.861 38.1915L150.485 12.1075L131.022 20.3236Z" fill="#FDD305"/>
<path d="M137.004 31.491L156.307 28.6194L160.136 40.3452L157.185 42.8978L148.171 45.0515L142.348 42.1799L137.004 31.491Z" fill="#FDD305"/>
<path d="M76.6194 47.9231V28.8586H79.2517V32.3684L80.1292 31.6505C81.9638 30.1349 84.0378 29.2575 86.2713 28.9384L87.388 28.8586V31.491H86.7499C85.6331 31.491 84.3569 31.8898 83.0008 32.7672C81.6448 33.6447 80.6078 34.8412 79.8899 36.3568C79.5708 36.9152 79.4113 37.4735 79.4113 38.1117C79.3315 38.6701 79.3315 40.2654 79.2517 42.7382L79.172 47.9231H76.6194V47.9231Z" fill="white"/>
<path d="M107.489 47.9231V27.1038H110.121V47.9231H107.489V47.9231Z" fill="white"/>
<path d="M109.483 25.668H108.127C107.568 25.668 107.169 25.1894 107.169 24.7108V23.9929C107.169 23.4345 107.648 23.0356 108.127 23.0356H109.483C110.041 23.0356 110.44 23.5142 110.44 23.9929V24.7108C110.44 25.1894 110.041 25.668 109.483 25.668Z" fill="white"/>
<path d="M114.269 61.6431V26.9442H117.141V30.2945L118.098 29.5765C120.172 27.9812 122.405 27.1835 124.958 27.1835C127.909 27.1835 130.382 28.2205 132.376 30.2147C134.371 32.2886 135.407 34.6817 135.407 37.4735C135.407 40.0261 134.53 42.3394 132.775 44.4133C131.02 46.4075 128.707 47.604 125.835 48.0029C125.676 48.0029 125.437 48.0826 125.117 48.0826C124.001 48.0826 122.804 47.8433 121.448 47.3647C120.172 46.8861 119.055 46.248 118.178 45.5301L117.3 44.5729L117.22 50.1566V61.7229H114.269V61.6431ZM131.898 34.4424C131.339 33.1661 130.462 32.1291 129.265 31.2517C128.069 30.3742 126.713 29.9754 125.197 29.8956H124.958C122.724 29.8956 120.81 30.7731 119.294 32.4482C118.098 33.8042 117.46 35.4793 117.46 37.3938C117.46 38.5903 117.699 39.6273 118.098 40.5047C118.736 41.8608 119.693 42.9775 120.97 43.7752C122.246 44.5729 123.602 44.9717 124.958 44.9717C125.277 44.9717 125.835 44.8919 126.633 44.7324C129.106 44.0942 130.941 42.5787 131.977 40.1856C132.297 39.388 132.536 38.5105 132.536 37.4735C132.536 36.277 132.297 35.24 131.898 34.4424Z" fill="white"/>
<path d="M58.8316 22.9558C59.7888 22.6368 60.8258 22.557 61.8627 22.557C65.2927 22.557 68.2441 23.7535 70.7169 26.2263C73.2695 28.6991 74.5458 31.7303 74.5458 35.3996C74.5458 37.314 74.1469 39.0689 73.3493 40.8238C72.3123 42.9775 70.7967 44.7324 68.7227 46.0087C66.7286 47.285 64.4153 47.9231 61.9425 47.9231C58.2732 47.9231 55.3218 46.7266 52.9288 44.2538C50.456 41.781 49.1797 38.7498 49.1797 35.3198C49.1797 32.528 50.0571 29.8956 51.812 27.5824C53.4871 25.2691 55.8802 23.7535 58.8316 22.9558ZM65.0534 26.6252C64.0165 26.2263 62.8997 26.0668 61.7032 26.0668C60.8258 26.0668 60.0281 26.1465 59.2304 26.3858C57.316 27.024 55.7206 28.1407 54.4443 29.8159C53.1681 31.491 52.6097 33.3256 52.6097 35.2401C52.6097 35.7187 52.6097 36.0377 52.6895 36.277C52.849 37.9521 53.4871 39.388 54.5241 40.744C55.5611 42.1001 56.7576 43.0573 58.2732 43.6157C59.4697 44.174 60.746 44.4931 61.9425 44.4931C63.6974 44.4931 65.2927 44.0145 66.8881 42.9775C68.4037 42.0203 69.6002 40.6642 70.3979 38.9891C70.8765 38.0319 71.1158 36.7556 71.1158 35.1603C71.1158 33.6447 70.8765 32.3684 70.3181 31.2517C69.7597 30.2945 69.0418 29.3372 68.0846 28.38C67.0476 27.5824 66.0106 26.9442 65.0534 26.6252Z" fill="white"/>
<path d="M93.7694 27.8216C94.7266 27.6621 95.5243 27.5026 96.1625 27.5026C97.9174 27.5026 99.5127 27.9014 100.869 28.7788C102.305 29.6563 103.262 30.773 103.9 32.0493C104.299 32.847 104.538 33.4054 104.538 33.7244C104.538 34.0435 104.059 34.203 103.182 34.203C102.544 34.203 102.145 34.203 101.986 34.1233C101.826 34.0435 101.666 33.884 101.507 33.5649C101.028 32.4482 100.071 31.5707 98.6353 30.8528C97.8376 30.454 97.1994 30.2944 96.6411 30.2944C96.322 30.2944 96.0029 30.2944 95.7636 30.3742C93.7694 30.5337 92.4932 31.2516 92.0943 32.4482C91.9348 32.7672 91.855 33.0863 91.855 33.4054C91.855 33.884 92.0943 34.3626 92.5729 34.8412C93.2908 35.5591 94.8862 36.1972 97.4388 36.9151C100.629 37.7128 102.624 38.9093 103.501 40.4249C103.82 41.0631 103.98 41.5417 103.98 42.0203C103.98 42.1 103.98 42.1798 103.98 42.3393C103.98 42.4989 103.98 42.6584 103.98 42.7382C103.98 43.6156 103.661 44.4133 103.182 45.0514C101.666 46.9659 99.4329 47.9231 96.4018 47.9231C94.4076 47.9231 92.7325 47.3647 91.2169 46.3277C89.7811 45.2907 88.7441 43.8549 88.2655 42.1C88.2655 42.0203 88.1857 41.9405 88.1857 41.8607C88.1857 41.7012 88.6643 41.6214 89.6215 41.6214C90.6585 41.6214 91.2169 41.781 91.2966 42.1C91.3764 42.4989 91.6955 42.8977 92.2539 43.3763C92.7325 43.8549 93.2908 44.2538 93.8492 44.4931C94.7267 44.9717 95.6041 45.211 96.4018 45.211C96.9601 45.211 97.5185 45.1312 97.9971 44.9717C99.8318 44.4931 100.869 43.7752 101.268 42.8977C101.427 42.4191 101.347 42.0203 101.108 41.6214C100.55 40.8238 99.0341 40.1058 96.6411 39.4677C93.929 38.67 92.0146 37.8724 90.9776 36.9949C89.8608 36.1175 89.3024 34.8412 89.3024 33.3256C89.3024 31.9696 89.7013 30.8528 90.5787 29.8158C91.0573 28.8586 92.2539 28.1407 93.7694 27.8216Z" fill="white"/>
<path d="M52.9313 62.8115C53.6859 62.8115 54.7133 62.5546 55.3394 61.9285C56.0298 61.2221 56.2706 60.2428 56.2706 58.7338V51.6861H54.8578V58.1879C54.8578 60.0502 54.7133 60.6603 54.328 61.1098C53.9909 61.479 53.429 61.6556 52.7868 61.7038L52.9313 62.8115ZM55.5802 48.6198C55.0505 48.6198 54.6812 49.005 54.6812 49.5027C54.6812 49.9683 55.0184 50.3696 55.5481 50.3696C56.11 50.3696 56.4472 49.9683 56.4311 49.5027C56.4311 49.005 56.094 48.6198 55.5802 48.6198Z" fill="white"/>
<path d="M65.0868 51.6861H63.6741V56.4541C63.6741 56.711 63.6259 56.9678 63.5457 57.1765C63.2888 57.8026 62.6306 58.4609 61.6834 58.4609C60.3991 58.4609 59.9496 57.4655 59.9496 55.9885V51.6861H58.5368V56.2293C58.5368 58.9585 59.9977 59.6328 61.2178 59.6328C62.5985 59.6328 63.4172 58.814 63.7865 58.1879H63.8186L63.8988 59.4562H65.1511C65.1029 58.8462 65.0868 58.1398 65.0868 57.3371V51.6861Z" fill="white"/>
<path d="M68.84 59.4562V51.6861H67.4272V59.4562H68.84ZM68.1336 48.6198C67.6199 48.6198 67.2506 49.005 67.2506 49.5027C67.2506 49.9843 67.6038 50.3696 68.1015 50.3696C68.6634 50.3696 69.0166 49.9843 69.0005 49.5027C69.0005 49.005 68.6634 48.6198 68.1336 48.6198Z" fill="white"/>
<path d="M76.4877 58.1077C76.0863 58.2843 75.5566 58.493 74.7539 58.493C73.2127 58.493 72.0568 57.3852 72.0568 55.5872C72.0568 53.9657 73.02 52.6493 74.802 52.6493C75.5726 52.6493 76.1024 52.8259 76.4395 53.0185L76.7606 51.9269C76.3753 51.7342 75.6368 51.5255 74.802 51.5255C72.2655 51.5255 70.628 53.2594 70.628 55.6514C70.628 58.0274 72.1531 59.6167 74.497 59.6167C75.5405 59.6167 76.3593 59.3599 76.7285 59.1672L76.4877 58.1077Z" fill="white"/>
<path d="M84.5369 55.828C84.5529 55.6835 84.5851 55.4588 84.5851 55.1698C84.5851 53.741 83.9108 51.5095 81.3743 51.5095C79.1106 51.5095 77.73 53.3557 77.73 55.6996C77.73 58.0435 79.1588 59.6167 81.5508 59.6167C82.787 59.6167 83.6379 59.3599 84.1355 59.1351L83.8947 58.1237C83.3649 58.3485 82.7549 58.5251 81.7435 58.5251C80.3307 58.5251 79.1106 57.7384 79.0785 55.828H84.5369ZM79.0946 54.8166C79.207 53.8373 79.8331 52.5209 81.2619 52.5209C82.8512 52.5209 83.2365 53.9176 83.2205 54.8166H79.0946Z" fill="white"/>
<path d="M90.8925 59.4562L90.9567 58.1719H91.0049C91.5828 59.1993 92.4819 59.6328 93.6056 59.6328C95.3395 59.6328 97.0894 58.2522 97.0894 55.4748C97.1054 53.1149 95.7408 51.5095 93.8144 51.5095C92.5621 51.5095 91.6631 52.0714 91.1654 52.9383H91.1333V48.0579H89.7366V57.4495C89.7366 58.1398 89.7045 58.9264 89.6724 59.4562H90.8925ZM91.1333 54.945C91.1333 54.7203 91.1815 54.5276 91.2136 54.3671C91.5026 53.2915 92.4016 52.6333 93.3648 52.6333C94.8739 52.6333 95.6766 53.9657 95.6766 55.523C95.6766 57.305 94.7936 58.509 93.3167 58.509C92.2892 58.509 91.4705 57.8347 91.1975 56.8555C91.1654 56.6949 91.1333 56.5183 91.1333 56.3417V54.945Z" fill="white"/>
<path d="M104.464 59.4562C104.367 58.9264 104.335 58.2682 104.335 57.5939V54.6882C104.335 53.1309 103.757 51.5095 101.381 51.5095C100.402 51.5095 99.4708 51.7824 98.8286 52.1998L99.1497 53.1309C99.6955 52.7777 100.45 52.553 101.172 52.553C102.762 52.553 102.938 53.7089 102.938 54.351V54.5116C99.9363 54.4955 98.2667 55.523 98.2667 57.4013C98.2667 58.5251 99.0694 59.6328 100.643 59.6328C101.75 59.6328 102.585 59.087 103.019 58.4769H103.067L103.179 59.4562H104.464ZM102.971 56.8394C102.971 56.9839 102.938 57.1444 102.89 57.2889C102.665 57.9471 102.023 58.5893 101.012 58.5893C100.29 58.5893 99.6795 58.1558 99.6795 57.2408C99.6795 55.7317 101.429 55.4588 102.971 55.4909V56.8394Z" fill="white"/>
<path d="M106.622 59.4562H108.018V55.3143C108.018 55.0735 108.05 54.8487 108.082 54.6561C108.275 53.5965 108.981 52.842 109.977 52.842C110.169 52.842 110.314 52.858 110.458 52.8901V51.5576C110.33 51.5255 110.218 51.5095 110.057 51.5095C109.11 51.5095 108.259 52.1677 107.906 53.2112H107.842L107.793 51.6861H106.557C106.606 52.4085 106.622 53.1951 106.622 54.1102V59.4562Z" fill="white"/>
<path d="M129.981 59.915C129.339 59.2247 128.777 58.6146 128.199 58.0046C129.002 57.0574 129.467 55.7089 129.756 54.0071H128.472C128.263 55.3717 127.926 56.4153 127.428 57.1698C126.738 56.3992 125.711 55.2112 124.796 54.1516V54.1035C126.513 53.2526 127.172 52.3536 127.172 51.2138C127.172 49.8171 126.128 48.918 124.779 48.918C122.981 48.918 122.034 50.2666 122.034 51.583C122.034 52.3536 122.371 53.1402 122.933 53.8466V53.8948C121.697 54.569 120.814 55.5804 120.814 57.0574C120.814 58.6789 122.034 60.0916 124.137 60.0916C125.325 60.0916 126.369 59.7224 127.3 58.8555C127.717 59.305 128.006 59.61 128.311 59.915H129.981ZM124.378 59.0321C123.078 59.0321 122.163 58.0849 122.163 56.8487C122.163 55.7089 122.981 55.0186 123.559 54.6493C124.763 56.03 125.967 57.3464 126.61 58.0528C126.096 58.6146 125.309 59.0321 124.378 59.0321ZM124.683 49.8813C125.566 49.8813 125.935 50.6198 125.935 51.278C125.935 52.193 125.229 52.771 124.137 53.3971C123.672 52.8192 123.319 52.2252 123.319 51.4546C123.319 50.6198 123.784 49.8813 124.683 49.8813Z" fill="white"/>
<path d="M139.908 58.5665C139.507 58.7431 138.977 58.9518 138.175 58.9518C136.633 58.9518 135.478 57.8441 135.478 56.046C135.478 54.4246 136.441 53.1081 138.223 53.1081C138.993 53.1081 139.523 53.2847 139.86 53.4774L140.181 52.3857C139.796 52.193 139.058 51.9843 138.223 51.9843C135.686 51.9843 134.049 53.7182 134.049 56.1102C134.049 58.4862 135.574 60.0756 137.918 60.0756C138.961 60.0756 139.78 59.8187 140.149 59.6261L139.908 58.5665Z" fill="white"/>
<path d="M147.394 59.915C147.297 59.3852 147.265 58.727 147.265 58.0528V55.147C147.265 53.5897 146.687 51.9683 144.311 51.9683C143.332 51.9683 142.401 52.2412 141.759 52.6586L142.08 53.5897C142.625 53.2366 143.38 53.0118 144.102 53.0118C145.692 53.0118 145.868 54.1677 145.868 54.8099V54.9704C142.866 54.9543 141.197 55.9818 141.197 57.8601C141.197 58.9839 141.999 60.0916 143.573 60.0916C144.68 60.0916 145.515 59.5458 145.949 58.9357H145.997L146.109 59.915H147.394ZM145.901 57.2982C145.901 57.4427 145.868 57.6032 145.82 57.7477C145.595 58.4059 144.953 59.0481 143.942 59.0481C143.219 59.0481 142.609 58.6146 142.609 57.6996C142.609 56.1905 144.359 55.9176 145.901 55.9497V57.2982Z" fill="white"/>
<path d="M151.093 59.915V53.2205H152.971V52.1449H151.093V51.7275C151.093 50.5395 151.398 49.4799 152.602 49.4799C153.003 49.4799 153.292 49.5602 153.501 49.6565L153.693 48.5648C153.421 48.4525 152.987 48.3401 152.489 48.3401C151.831 48.3401 151.125 48.5488 150.595 49.0625C149.937 49.6886 149.696 50.684 149.696 51.7756V52.1449H148.604V53.2205H149.696V59.915H151.093Z" fill="white"/>
<path d="M160.28 56.2868C160.296 56.1423 160.329 55.9176 160.329 55.6286C160.329 54.1998 159.654 51.9683 157.118 51.9683C154.854 51.9683 153.473 53.8145 153.473 56.1584C153.473 58.5023 154.902 60.0756 157.294 60.0756C158.53 60.0756 159.381 59.8187 159.879 59.5939L159.638 58.5825C159.108 58.8073 158.498 58.9839 157.487 58.9839C156.074 58.9839 154.854 58.1972 154.822 56.2868H160.28ZM154.838 55.2754C154.95 54.2961 155.577 52.9797 157.005 52.9797C158.595 52.9797 158.98 54.3764 158.964 55.2754H154.838Z" fill="white"/>
</svg>
