<svg width="211" height="73" viewBox="0 0 211 73" fill="none" xmlns="http://www.w3.org/2000/svg">
<rect width="211" height="73" fill="#212121"/>
<path d="M51.4321 35.9385C53.484 34.6004 57.5877 29.1584 57.5877 24.9654C57.5877 23.8056 58.0338 23.984 59.0151 23.984H61.7807C62.6729 23.984 63.7434 23.7164 63.7434 24.9654C63.7434 31.1211 58.8367 35.2248 58.8367 36.117C58.8367 37.0983 60.7102 37.812 62.4944 40.0423C64.3679 42.3619 66.1522 46.1088 66.1522 51.4615C66.1522 52.7997 65.26 52.7105 64.1895 52.7105H60.5318C59.2828 52.7105 58.9259 52.7997 58.8367 51.2831C58.7475 45.1274 55.8927 40.1315 54.5545 40.1315C54.2869 40.1315 53.484 40.31 52.7703 40.8452" fill="#FF8C39"/>
<path d="M68.2932 13.1893C68.4716 12.2079 67.4011 11.8511 66.0629 11.5834C65.8845 10.959 65.4384 10.8697 64.9031 11.1374C62.762 10.6021 61.2454 10.8697 60.6209 12.2079C24.4006 19.9694 55.8926 42.0942 42.7784 48.2498C41.1726 48.9635 39.2991 48.6959 38.0501 47.4469C32.5189 41.6481 46.9714 23.3595 23.5977 31.2994C47.6851 28.5338 23.9545 45.9303 35.5522 53.6026C38.4962 55.5653 42.1539 55.8329 45.3656 54.4947C60.6209 48.0714 50.7183 35.5816 48.6664 27.3741C48.2204 25.5006 48.5772 23.4487 49.6478 21.8429C51.6104 19.0773 55.5358 17.2038 61.6023 16.2225C62.8512 17.2038 63.7434 16.6686 65.4384 15.8656C65.9737 15.9549 66.3305 15.9549 66.3305 15.3304C67.4903 14.7059 68.7393 14.2598 68.2932 13.1893ZM38.2285 52.3536C38.1393 52.6213 37.6933 52.6213 37.3364 52.4428C37.158 52.3536 36.9796 52.1752 36.9796 51.9968C36.8903 51.8184 36.8903 51.7291 36.9796 51.6399C36.9796 51.5507 37.158 51.5507 37.3364 51.5507C37.5148 51.5507 37.6933 51.5507 37.8717 51.6399C38.0501 51.7291 38.2285 51.8184 38.3177 51.9968C38.2285 52.1752 38.3177 52.2644 38.2285 52.3536ZM38.7638 50.837C38.6746 51.1047 38.2285 51.1047 37.8717 50.9262C37.6933 50.837 37.5148 50.6586 37.5148 50.4802C37.4256 50.3017 37.4256 50.2125 37.5148 50.1233C37.5148 50.0341 37.6933 50.0341 37.8717 50.0341C38.0501 50.0341 38.2285 50.0341 38.407 50.1233C38.5854 50.2125 38.7638 50.3017 38.853 50.4802C38.853 50.5694 38.853 50.7478 38.7638 50.837ZM47.9527 19.7018C48.1311 19.8802 48.0419 20.2371 47.7743 20.5047C47.5067 20.7723 47.1498 20.8616 47.0606 20.7723C46.8822 20.6831 46.9714 20.2371 47.239 19.9694C47.4174 19.6126 47.7743 19.5234 47.9527 19.7018ZM47.5066 24.7869C47.4174 24.9653 47.3282 25.0546 47.239 25.1438C47.1498 25.233 46.9714 25.233 46.8822 25.233C46.793 25.233 46.7037 25.1438 46.6145 24.9653C46.5253 24.7869 46.5253 24.6085 46.6145 24.4301C46.7929 24.0732 47.0606 23.8948 47.3282 23.984C47.4174 24.0732 47.5067 24.1624 47.5959 24.2516C47.5959 24.4301 47.5959 24.6085 47.5066 24.7869ZM47.5959 27.9094C47.6851 27.9986 47.7743 28.177 47.7743 28.3554C47.7743 28.7123 47.5959 29.0691 47.4174 29.1583C47.239 29.2475 46.8822 28.8907 46.8822 28.4446C46.8822 28.2662 46.8822 28.0878 46.9714 27.9094C47.0606 27.7309 47.1498 27.6417 47.3282 27.6417C47.4174 27.7309 47.5067 27.8201 47.5959 27.9094ZM46.793 32.37C47.0606 32.2808 47.4174 32.5484 47.5066 32.9945C47.6851 33.4405 47.4174 33.7974 47.3282 33.8866C47.1498 33.9758 46.7037 33.7082 46.6145 33.2621C46.4361 32.9053 46.5253 32.4592 46.793 32.37ZM46.793 37.2767C47.0606 37.1875 47.4174 37.4551 47.5066 37.9012C47.5959 38.3472 47.4174 38.7041 47.239 38.7933C47.0606 38.8825 46.6145 38.6149 46.5253 38.1688C46.4361 37.812 46.5253 37.3659 46.793 37.2767ZM46.9714 45.395C47.1498 45.0382 47.5067 44.7706 47.7743 44.949C48.0419 45.0382 48.1311 45.4843 47.9527 45.8411C47.7743 46.2872 47.3282 46.3764 47.1498 46.2872C47.0606 46.2872 46.9714 46.1087 46.9714 45.9303C46.8822 45.7519 46.8822 45.5735 46.9714 45.395ZM47.7743 42.6294C47.5959 42.6294 47.3282 42.2726 47.3282 41.8265C47.3282 41.6481 47.4174 41.4697 47.5066 41.2913C47.5959 41.202 47.7743 41.1128 47.8635 41.1128C48.0419 41.1128 48.1311 41.202 48.2204 41.2913C48.3096 41.4697 48.3988 41.6481 48.3988 41.8265C48.3096 42.3618 47.9527 42.6294 47.7743 42.6294ZM45.0087 24.1624C45.0979 23.7164 45.4548 23.4487 45.7224 23.5379C45.99 23.6272 46.0793 23.984 45.9008 24.4301C45.8116 24.6085 45.7224 24.7869 45.6332 24.8761C45.544 24.9653 45.3655 25.0546 45.2763 25.0546C45.1871 25.0546 45.0979 24.9653 45.0087 24.7869C45.0087 24.6085 44.9195 24.3409 45.0087 24.1624ZM43.4029 23.8056C43.5813 23.2703 43.8489 23.0027 44.1166 23.0919C44.3842 23.1811 44.3842 23.6271 44.295 24.0732C44.2058 24.3409 44.1166 24.5193 44.0274 24.6085C43.9381 24.6977 43.7597 24.7869 43.6705 24.7869C43.5813 24.7869 43.4921 24.6977 43.4029 24.5193C43.4029 24.3409 43.3137 24.0732 43.4029 23.8056ZM44.1166 30.0505C43.9381 30.1397 43.5813 29.7828 43.4921 29.2475C43.4921 28.9799 43.4921 28.8015 43.4921 28.6231C43.5813 28.4446 43.6705 28.3554 43.8489 28.3554C44.0274 28.3554 44.1166 28.4446 44.2058 28.6231C44.295 28.8015 44.3842 28.9799 44.4734 29.2475C44.4734 29.6044 44.2058 29.9612 44.1166 30.0505ZM45.6332 34.6003C45.4548 34.6895 45.0087 34.4219 44.9195 33.9758C44.7411 33.5298 44.8303 33.0837 45.0979 32.9945C45.3655 32.9053 45.7224 33.1729 45.8116 33.619C45.99 34.1542 45.8116 34.5111 45.6332 34.6003ZM45.7224 29.6044C45.544 29.6936 45.1871 29.3368 45.0979 28.8907C45.0979 28.6231 45.0979 28.4446 45.1871 28.2662C45.2763 28.0878 45.3655 27.9986 45.544 27.9986C45.7224 27.9986 45.8116 28.0878 45.9008 28.177C45.99 28.2662 46.0792 28.5338 46.1685 28.7123C46.1685 29.1583 45.9008 29.6044 45.7224 29.6044ZM45.8116 19.8802C45.6332 19.791 45.7224 19.3449 45.99 18.9881C46.2577 18.6312 46.7037 18.542 46.793 18.7205C46.9714 18.8989 46.8822 19.2557 46.5253 19.5234C46.3469 19.8802 45.99 19.9694 45.8116 19.8802ZM41.6186 49.9449C41.7078 49.9449 41.797 49.8557 41.8863 49.8557C41.9755 49.8557 41.9755 49.7665 42.0647 49.8557C42.1539 49.8557 42.3323 49.9449 42.4215 50.0341C42.5107 50.1233 42.6 50.2125 42.6 50.3909C42.6 50.5694 42.6 50.6586 42.5107 50.7478C42.4215 50.837 42.2431 50.9262 42.0647 50.9262H41.9755C41.9755 50.9262 41.8863 50.9262 41.8863 50.837C41.797 50.837 41.7078 50.7478 41.7078 50.6586C41.6186 50.5694 41.5294 50.391 41.5294 50.3017C41.4402 50.1233 41.5294 50.0341 41.6186 49.9449ZM41.6186 51.7291C41.7078 51.7291 41.797 51.6399 41.8863 51.6399C41.9755 51.6399 42.0647 51.6399 42.1539 51.6399C42.3323 51.6399 42.5107 51.7291 42.6892 51.7291C42.8676 51.8184 42.9568 51.9076 42.9568 52.086C42.9568 52.2644 42.8676 52.3536 42.7784 52.4428C42.6 52.5321 42.4215 52.6213 42.1539 52.6213C41.8863 52.6213 41.7078 52.5321 41.6186 52.4428C41.4402 52.3536 41.4402 52.1752 41.4402 52.086C41.351 51.9076 41.4402 51.7291 41.6186 51.7291ZM42.9568 54.2271C42.8676 54.3163 42.6892 54.3163 42.6 54.3163C42.4215 54.3163 42.3323 54.3163 42.1539 54.3163C41.797 54.3163 41.6186 54.2271 41.5294 54.0487C41.351 53.9595 41.351 53.781 41.2618 53.6918C41.2618 53.6026 41.351 53.5134 41.5294 53.4242C41.6186 53.4242 41.7078 53.335 41.797 53.335C41.8863 53.335 42.0647 53.335 42.2431 53.335C42.7784 53.335 43.3137 53.5134 43.3137 53.781C43.3137 53.9595 43.2244 54.1379 42.9568 54.2271ZM45.6332 49.0528C45.2763 49.3204 44.9195 49.2312 44.7411 49.0528C44.6518 48.8743 44.6518 48.5175 44.9195 48.2498C45.1871 48.0714 45.544 47.9822 45.7224 48.1606C45.99 48.4283 45.99 48.7851 45.6332 49.0528ZM45.9008 50.4802C45.8116 50.3017 45.9008 49.8557 46.2577 49.588C46.6145 49.3204 46.9714 49.2312 47.239 49.4096C47.4174 49.588 47.3282 50.0341 46.9714 50.3909C46.5253 50.6586 46.0793 50.6586 45.9008 50.4802ZM48.1311 51.7291C47.6851 52.086 47.1498 52.086 47.0606 51.9076C46.9714 51.7291 47.1498 51.1939 47.5959 50.9262C47.7743 50.7478 48.0419 50.6586 48.2204 50.5694C48.3988 50.4802 48.5772 50.5694 48.6664 50.6586C48.7556 50.837 48.5772 51.3723 48.1311 51.7291ZM49.6478 46.4656C49.4693 46.9117 48.9341 47.0901 48.7556 47.0009C48.6664 47.0009 48.5772 46.8224 48.5772 46.644C48.5772 46.4656 48.5772 46.198 48.6664 46.0195C48.8448 45.5735 49.2017 45.3058 49.4693 45.395C49.8262 45.5735 49.9154 46.0195 49.6478 46.4656ZM51.432 47.2685C51.1644 47.8038 50.6291 47.9822 50.4507 47.893C50.3615 47.893 50.2722 47.7146 50.2722 47.4469C50.2722 47.2685 50.2722 47.0009 50.4507 46.7332C50.5399 46.4656 50.7183 46.2872 50.8967 46.198C51.0752 46.1087 51.2536 46.0195 51.3428 46.1087C51.6996 46.198 51.6996 46.7332 51.432 47.2685ZM51.0752 41.8265C51.1644 41.2913 51.3428 40.8452 51.6996 40.8452C51.8781 40.8452 51.9673 40.9344 52.0565 41.202C52.1457 41.3805 52.1457 41.6481 52.1457 42.005C52.1457 42.2726 51.9673 42.5402 51.8781 42.7187C51.7889 42.8971 51.6104 42.9863 51.5212 42.9863C51.3428 42.8971 51.0752 42.3618 51.0752 41.8265ZM50.2722 35.9385C50.5399 35.8493 50.8967 36.2061 50.9859 36.6522C51.0752 37.0983 50.8967 37.5443 50.7183 37.6335C50.5399 37.7228 50.0938 37.3659 50.0046 36.9198C49.8262 36.4738 50.0046 36.0277 50.2722 35.9385ZM49.737 41.0236C49.9154 41.0236 50.0046 41.1128 50.0938 41.2913C50.183 41.4697 50.2722 41.6481 50.2722 41.9157C50.2722 42.451 49.8262 42.7187 49.6478 42.8079C49.4693 42.8079 49.2017 42.3618 49.2017 41.9157C49.2017 41.6481 49.2909 41.4697 49.3801 41.2913C49.3801 41.1128 49.5585 41.0236 49.737 41.0236ZM48.9341 38.258C48.7556 38.3472 48.3096 37.9904 48.2204 37.6335C48.1311 37.1875 48.2204 36.7414 48.488 36.6522C48.7556 36.563 49.1125 36.8306 49.2017 37.2767C49.3801 37.7227 49.1125 38.1688 48.9341 38.258ZM48.488 31.7455C48.7556 31.6563 49.0233 31.9239 49.2017 32.37C49.2909 32.8161 49.1125 33.1729 48.9341 33.2621C48.7556 33.3513 48.3988 33.0837 48.2204 32.6376C48.1311 32.1916 48.2204 31.8347 48.488 31.7455ZM48.9341 21.486C48.7556 21.6645 48.3988 21.6645 48.2204 21.5753C48.0419 21.486 48.1311 21.1292 48.3096 20.8616C48.5772 20.5939 48.9341 20.5939 49.0233 20.7723C49.2017 20.9508 49.2017 21.2184 48.9341 21.486ZM50.0938 17.5607C49.8262 17.8283 49.4693 17.8283 49.2909 17.7391C49.2017 17.6499 49.2909 17.2038 49.5585 16.9362C49.9154 16.6686 50.2722 16.5793 50.3615 16.7578C50.5399 17.0254 50.4507 17.2931 50.0938 17.5607ZM51.0752 18.542C50.8075 18.8097 50.4507 18.8097 50.3615 18.7205C50.2722 18.6312 50.2722 18.2744 50.5399 18.0068C50.8075 17.7391 51.1644 17.7391 51.2536 17.9175C51.432 18.0068 51.3428 18.3636 51.0752 18.542ZM64.9031 11.6727C64.9031 11.4942 65.0815 11.3158 65.3492 11.3158C65.6168 11.3158 65.8845 11.405 65.8845 11.5834C65.8845 11.7619 65.706 11.9403 65.4384 11.9403C65.1708 11.9403 64.9031 11.8511 64.9031 11.6727ZM66.2413 15.5088C66.2413 15.6872 65.9737 15.7764 65.706 15.6872C65.4384 15.598 65.26 15.4196 65.26 15.2412C65.26 15.0627 65.5276 14.9735 65.7952 15.0627C66.0629 15.1519 66.2413 15.3304 66.2413 15.5088Z" fill="#FF8C39"/>
<path d="M67.5795 43.8784C67.5795 39.061 69.899 33.9758 75.0734 33.9758C80.2477 33.9758 82.5672 39.1502 82.5672 43.8784C82.5672 50.837 78.5527 53.8703 75.0734 53.8703C71.5941 53.8703 67.5795 50.837 67.5795 43.8784ZM78.7311 43.1647C78.7311 40.8452 77.9282 37.4551 74.9842 37.4551C72.0401 37.4551 71.2372 40.756 71.2372 43.1647C71.2372 45.5735 72.0401 48.9636 74.9842 48.9636C78.0174 48.8743 78.7311 45.4843 78.7311 43.1647Z" fill="#E9E9E9"/>
<path d="M85.7789 60.6504C84.8868 60.6504 84.4407 53.6918 84.4407 48.5175V39.8638C84.4407 33.5297 84.8868 33.9758 89.9719 33.9758C96.6628 33.9758 98.2687 37.0982 98.2687 40.2207C98.2687 44.8597 93.7188 49.4988 91.3993 49.4988C90.864 49.4988 90.3287 48.7851 89.7935 48.2498C89.3474 47.7145 88.9013 47.1793 88.7229 47.1793C88.4553 47.1793 88.5445 47.7145 88.5445 48.2498C88.5445 50.3017 89.0798 59.9367 89.0798 60.2935C89.0798 60.7396 88.4553 60.7396 88.0984 60.7396H85.7789V60.6504ZM94.6109 40.756C94.6109 38.7933 93.0051 37.4551 91.1317 37.4551C89.5258 37.4551 88.4553 37.5443 88.4553 43.5215C88.4553 44.5921 88.4553 45.7519 89.7935 45.7519C92.4698 45.7519 94.6109 43.1647 94.6109 40.756Z" fill="#E9E9E9"/>
<path d="M99.3392 44.6813C99.3392 37.4551 103.354 33.8866 107.279 33.8866C110.58 33.8866 113.346 35.7601 113.346 39.2394C113.346 45.6627 103.8 44.3245 103.8 47.3577C103.8 48.7851 106.03 49.7664 107.547 49.7664C112.453 49.7664 112.453 46.0195 112.81 46.0195C113.256 46.0195 113.346 47.5361 113.346 47.8038C113.346 51.5507 110.402 53.781 106.833 53.781C101.48 53.8702 99.3392 49.4988 99.3392 44.6813ZM103.354 41.7373C103.354 42.0942 103.532 42.3618 103.889 42.3618C104.246 42.3618 109.688 41.202 109.688 39.6854C109.688 38.258 108.35 37.4551 107.19 37.4551C104.692 37.4551 103.354 40.0423 103.354 41.7373Z" fill="#E9E9E9"/>
<path d="M117.271 53.4242C116.2 53.4242 115.665 54.3163 115.665 44.5029C115.665 36.2954 115.397 34.4219 116.29 34.4219H118.788C119.234 34.4219 119.769 34.2435 119.769 34.868C119.858 35.314 119.858 35.8493 120.483 35.8493C120.929 35.8493 121.464 35.4032 122.088 34.868C122.713 34.4219 123.427 33.9758 124.23 33.9758C125.746 33.9758 126.995 35.314 126.995 36.9198C126.995 38.9717 125.3 40.2207 124.408 40.2207C124.051 40.2207 124.497 38.258 122.445 38.258C119.947 38.258 119.769 42.2726 119.769 44.0569C119.769 49.9449 120.75 52.4429 120.75 52.9781C120.75 53.4242 120.037 53.4242 119.769 53.4242H117.271Z" fill="#E9E9E9"/>
<path d="M133.329 28.0877C133.597 28.0877 133.775 28.4446 133.775 28.7122C133.775 29.1583 132.616 32.0131 132.616 34.4218C132.616 34.7787 132.616 35.314 133.151 35.314C133.418 35.314 133.864 35.0463 134.489 34.6895C135.203 34.3326 136.006 33.9758 136.987 33.9758C139.663 33.9758 141.715 35.9385 141.715 43.0755C141.715 45.9303 141.269 53.4241 140.377 53.4241H137.255C136.987 53.4241 136.184 53.5134 136.184 53.0673C136.184 52.8889 137.701 47.0008 137.701 42.9863C137.701 38.3472 136.898 37.4551 135.47 37.4551C132.437 37.4551 132.348 42.0941 132.348 44.2352C132.348 50.2125 132.972 52.086 132.972 52.9781C132.972 53.4241 132.437 53.4241 132.08 53.4241H129.136C128.244 53.4241 128.244 54.4055 128.244 41.202C128.244 38.7933 128.333 27.9985 129.939 27.9985H133.329V28.0877Z" fill="#E9E9E9"/>
<path d="M143.678 44.6813C143.678 37.4551 147.692 33.8866 151.618 33.8866C154.919 33.8866 157.684 35.7601 157.684 39.2394C157.684 45.6627 148.139 44.3245 148.139 47.3577C148.139 48.7851 150.369 49.7664 151.885 49.7664C156.792 49.7664 156.792 46.0195 157.149 46.0195C157.595 46.0195 157.684 47.5361 157.684 47.8038C157.684 51.5507 154.74 53.781 151.172 53.781C145.908 53.8702 143.678 49.4988 143.678 44.6813ZM147.692 41.7373C147.692 42.0942 147.871 42.3618 148.228 42.3618C148.585 42.3618 154.027 41.202 154.027 39.6854C154.027 38.258 152.688 37.4551 151.529 37.4551C149.12 37.4551 147.692 40.0423 147.692 41.7373Z" fill="#E9E9E9"/>
<path d="M166.695 41.0236C167.587 40.8452 168.211 40.756 168.211 39.7747C168.211 38.258 166.606 37.4551 165.357 37.4551C162.323 37.4551 162.769 40.0423 162.145 40.0423C161.164 40.0423 160.182 38.8825 160.182 37.6336C160.182 35.4032 162.68 33.9758 165.357 33.9758C166.338 33.9758 170.352 33.9758 171.869 38.0796C172.494 39.7747 172.583 48.6067 172.583 49.6773C172.583 51.0155 172.85 51.7292 172.85 52.7997C172.85 53.4242 170.085 53.5134 167.408 53.5134C160.271 53.5134 159.736 49.8557 159.736 48.0714C159.647 44.2353 163.305 41.6481 166.695 41.0236ZM168.479 46.2872C168.479 45.2166 168.657 43.9676 167.23 43.9676C165.446 43.9676 163.662 45.4843 163.662 47.2685C163.662 48.9636 165.089 49.9449 166.695 49.9449C168.479 49.9449 168.479 49.0528 168.479 47.6254V46.2872Z" fill="#E9E9E9"/>
<path d="M180.969 53.4242C177.668 53.4242 174.724 50.4801 174.724 44.5029C174.724 37.7227 179.274 33.9758 181.861 33.9758C182.485 33.9758 183.11 34.6895 183.556 34.6895C184.18 34.6895 184.27 33.619 184.27 33.1729C184.27 30.7641 183.556 29.6936 183.556 28.5338C183.556 28.0878 184.27 28.0878 184.627 28.0878H187.749C189.087 28.0878 188.998 41.3805 188.998 42.8079C188.998 43.5216 189.087 53.4242 188.106 53.4242H180.969ZM184.805 42.3618C184.805 37.0982 184.002 36.7414 182.932 36.7414C181.683 36.7414 178.739 38.4364 178.739 43.7892C178.739 45.8411 179.541 49.0527 182.039 49.0527C185.251 49.0527 184.805 44.5029 184.805 42.3618Z" fill="#E9E9E9"/>
</svg>
