<svg width="211" height="73" viewBox="0 0 211 73" fill="none" xmlns="http://www.w3.org/2000/svg">
<rect width="211" height="73" fill="#212121"/>
<path d="M41.2692 64.337H47.5448C46.4791 54.746 53.1099 49.5361 59.2671 43.1421C61.0432 41.366 61.0432 38.5242 59.3855 36.6297L54.886 31.775C52.3995 29.1701 48.3736 29.0517 45.7687 31.5382L41.3876 35.6825C40.2035 36.8665 40.0851 38.7611 41.2692 40.0635C42.4533 41.2476 44.3478 41.366 45.6503 40.1819L49.5577 36.3929C50.0313 35.9193 50.7418 36.0377 51.2154 36.3929L53.3467 38.6427C53.8204 39.1163 53.702 39.8267 53.2283 40.3004C46.0055 46.9312 40.7956 53.2067 41.2692 64.337Z" fill="#F8596F"/>
<path d="M36.8883 46.9312C36.1778 48.1153 35.1121 48.9441 33.8097 49.6546C32.5072 50.365 30.8495 50.7202 28.8366 50.7202C25.8764 50.7202 23.5083 50.0098 21.6137 48.5889C19.7192 47.168 18.6536 45.1551 18.5352 42.6685H25.166C25.2844 43.6158 25.6396 44.4446 26.2316 45.0367C26.8237 45.6287 27.6525 45.8655 28.4813 45.8655C29.3102 45.8655 29.9022 45.6287 30.3759 45.1551C30.8495 44.6815 31.0863 44.0894 31.0863 43.379C31.0863 42.6685 30.8495 42.1949 30.4943 41.7213C30.0206 41.2476 29.547 40.8924 28.955 40.6556C28.3629 40.4188 27.4157 40.0636 26.35 39.59C24.6923 38.9979 23.3898 38.5243 22.3242 37.9323C21.2585 37.4586 20.4297 36.6298 19.6008 35.5641C18.8904 34.4984 18.5352 33.196 18.5352 31.5383C18.5352 29.999 18.8904 28.6965 19.7192 27.5124C20.5481 26.3283 21.6137 25.4995 22.9162 24.9075C24.3371 24.3154 25.8764 23.9602 27.6525 23.9602C30.4943 23.9602 32.8624 24.6707 34.5201 25.9731C36.1778 27.394 37.1251 29.1701 37.3619 31.6567H30.6127C30.4943 30.8278 30.139 30.1174 29.6654 29.6438C29.1918 29.1701 28.4814 28.9333 27.6525 28.9333C26.9421 28.9333 26.35 29.1701 25.8764 29.5253C25.4028 29.8806 25.166 30.4726 25.166 31.3015C25.166 31.8935 25.4028 32.4855 25.758 32.8407C26.1132 33.3144 26.7052 33.6696 27.2973 33.9064C27.8893 34.1432 28.8366 34.4984 29.9022 34.9721C31.5599 35.5641 32.9808 36.0377 33.9281 36.6298C34.9937 37.2218 35.941 37.9323 36.6514 38.9979C37.3619 40.0636 37.8355 41.3661 37.8355 43.1422C37.9539 44.5631 37.5987 45.8655 36.8883 46.9312Z" fill="#E9E9E9"/>
<path d="M75.2526 30.8277C76.4367 31.5382 77.2655 32.4854 77.7392 33.6695V29.9989H84.0147V50.4833H77.7392V46.8127C77.1471 47.9968 76.3183 48.944 75.2526 49.6545C74.1869 50.3649 72.7661 50.7202 71.2268 50.7202C69.5691 50.7202 68.0298 50.2465 66.7273 49.4177C65.4248 48.5888 64.3592 47.4047 63.5303 45.747C62.7015 44.2078 62.3462 42.3132 62.3462 40.1819C62.3462 38.0506 62.7015 36.1561 63.5303 34.6168C64.3592 33.0775 65.3064 31.775 66.7273 30.9462C68.0298 30.1173 69.5691 29.6437 71.2268 29.6437C72.7661 29.7621 74.0685 30.1173 75.2526 30.8277ZM69.9243 36.6297C69.0954 37.4585 68.7402 38.761 68.7402 40.3003C68.7402 41.8396 69.0954 43.1421 69.9243 43.9709C70.7531 44.7998 71.8188 45.2734 73.1213 45.2734C74.4238 45.2734 75.4894 44.7998 76.3183 43.9709C77.1471 43.0237 77.6208 41.8396 77.6208 40.3003C77.6208 38.761 77.1471 37.577 76.3183 36.6297C75.4894 35.6824 74.4238 35.3272 73.1213 35.3272C71.8188 35.3272 70.7531 35.6824 69.9243 36.6297Z" fill="#E9E9E9"/>
<path d="M97.6308 30.9462C98.8148 30.2357 100.236 29.8805 101.657 29.8805V36.6297H99.8805C98.2228 36.6297 96.9203 36.9849 95.973 37.6954C95.0258 38.4058 94.5522 39.5899 94.5522 41.2476V50.6017H88.2766V29.9989H94.5522V33.9063C95.381 32.6039 96.3283 31.6566 97.6308 30.9462Z" fill="#E9E9E9"/>
<path d="M116.696 50.4834L110.539 41.8397V50.4834H104.263V23.3682H110.539V38.2875L116.696 30.1174H124.037L115.749 40.3004L124.156 50.4834H116.696V50.4834Z" fill="#E9E9E9"/>
<path d="M132.797 23.3682V50.4834H126.521V23.3682H132.797Z" fill="#E9E9E9"/>
<path d="M137.534 21.9473C138.244 21.3552 139.073 21 140.257 21C141.441 21 142.27 21.3552 142.981 21.9473C143.691 22.5393 144.046 23.3681 144.046 24.3154C144.046 25.2627 143.691 25.9731 142.981 26.6835C142.27 27.2756 141.441 27.6308 140.257 27.6308C139.073 27.6308 138.244 27.2756 137.534 26.6835C136.823 26.0915 136.468 25.2627 136.468 24.3154C136.468 23.3681 136.823 22.5393 137.534 21.9473ZM143.336 29.999V50.4834H137.06V29.999H143.336Z" fill="#E9E9E9"/>
<path d="M166.307 32.1303C167.728 33.6696 168.32 35.8009 168.32 38.6427V50.4834H162.045V39.3531C162.045 37.9322 161.69 36.8666 160.979 36.1561C160.269 35.3273 159.321 34.9721 158.137 34.9721C156.835 34.9721 155.888 35.3273 155.059 36.1561C154.348 36.985 153.993 38.169 153.993 39.5899V50.4834H147.718V29.999H153.993V33.788C154.585 32.6039 155.414 31.6567 156.598 30.9462C157.782 30.2358 159.085 29.8805 160.742 29.8805C162.992 29.7621 164.887 30.591 166.307 32.1303Z" fill="#E9E9E9"/>
<path d="M191.764 41.366H177.555C177.674 42.9053 178.029 43.9709 178.739 44.6814C179.45 45.3918 180.397 45.747 181.463 45.747C182.41 45.747 183.12 45.5102 183.831 45.0366C184.423 44.563 184.896 43.9709 185.015 43.2605H191.646C191.409 44.6814 190.817 45.9839 189.87 47.1679C188.922 48.352 187.857 49.1809 186.436 49.8913C185.015 50.4833 183.476 50.8386 181.818 50.8386C179.805 50.8386 178.029 50.3649 176.49 49.5361C174.95 48.7072 173.766 47.5232 172.819 45.8655C171.99 44.3262 171.516 42.4317 171.516 40.3003C171.516 38.169 171.99 36.2745 172.819 34.7352C173.648 33.1959 174.95 31.8934 176.49 31.0646C178.029 30.2357 179.805 29.7621 181.818 29.7621C183.831 29.7621 185.607 30.2357 187.146 31.0646C188.685 31.8934 189.87 33.0775 190.698 34.6168C191.527 36.1561 192.001 37.8138 192.001 39.8267C191.882 40.1819 191.882 40.774 191.764 41.366ZM184.541 35.6824C183.831 34.972 182.884 34.6168 181.818 34.6168C180.634 34.6168 179.687 34.972 178.976 35.6824C178.266 36.3929 177.792 37.3401 177.674 38.6426H185.725C185.607 37.4585 185.252 36.3929 184.541 35.6824Z" fill="#E9E9E9"/>
<path d="M43.8727 29.407L42.9254 30.1174C42.807 30.2358 42.5702 30.2358 42.4518 29.999L39.2548 25.7363C39.1364 25.6179 39.1364 25.3811 39.3732 25.2627L40.3205 24.5523C40.4389 24.4339 40.6757 24.4339 40.7941 24.6707L43.9911 28.9333C44.1095 29.0517 43.9911 29.2886 43.8727 29.407Z" fill="#F8596F"/>
<path d="M57.017 29.2885L57.8458 30.1173C57.9642 30.2357 58.201 30.2357 58.3194 30.1173L61.8716 26.0915C61.9901 25.9731 61.9901 25.7363 61.8716 25.6178L61.0428 24.789C60.9244 24.6706 60.6876 24.6706 60.5692 24.789L57.017 28.8148C56.7802 28.9333 56.7802 29.1701 57.017 29.2885Z" fill="#F8596F"/>
<path d="M51.097 27.7492H49.9129C49.6761 27.7492 49.5577 27.6308 49.5577 27.394V21.9473C49.5577 21.7105 49.6761 21.592 49.9129 21.592H51.097C51.3338 21.592 51.4522 21.7105 51.4522 21.9473V27.2756C51.4522 27.5124 51.3338 27.7492 51.097 27.7492Z" fill="#F8596F"/>
</svg>
