<svg width="211" height="73" viewBox="0 0 211 73" fill="none" xmlns="http://www.w3.org/2000/svg">
<rect width="211" height="73" fill="#212121"/>
<path d="M43.6017 60.076C33.6289 60.2174 24.1512 52.7202 23.0903 41.6157C21.8879 30.0162 30.3754 20.2556 41.1969 19.1239C53.0087 17.8508 63.0522 26.5504 63.9717 37.7964C64.8911 49.3959 56.4036 58.237 47.1381 59.7223C47.0674 59.5809 46.926 59.3687 46.8552 59.1565C46.1479 57.7419 45.6528 56.2566 45.5114 54.7006C45.087 50.5276 46.3601 46.9204 49.0478 43.8083C49.6137 43.1718 50.1795 42.6059 50.8161 42.1108C50.8868 42.0401 50.8868 42.0401 50.9575 41.9694C48.6235 43.1718 47.0674 45.0107 46.0772 47.4155C46.0772 47.4155 46.0772 47.4155 46.0065 47.4155C46.0065 47.2033 46.0772 46.9911 46.0772 46.7082C46.2187 45.6473 46.4309 44.5863 46.926 43.5961C47.704 41.9694 48.9771 40.9792 50.7453 40.6255C51.6648 40.4133 52.5843 40.3426 53.5745 40.4133C53.9989 40.4133 54.494 40.4841 54.9891 40.5548C54.7769 40.767 54.6354 40.9084 54.494 41.0499C53.8574 41.6864 53.433 42.4645 53.0087 43.3132C52.5843 44.162 52.1599 45.0814 51.7355 45.9302C51.3819 46.6375 50.9575 47.3448 50.3917 47.9106C49.6137 48.6886 48.6942 49.1837 47.6333 49.3252C47.4211 49.3252 47.2796 49.3959 47.0674 49.3959C46.9967 49.6788 46.926 49.9617 46.8552 50.2447C46.7138 51.0227 46.5723 51.8007 46.5723 52.5787C46.5723 53.4982 46.7845 54.3469 47.0674 55.125C47.2796 55.6201 47.4211 56.0444 47.704 56.4688C54.7061 54.9128 61.2839 48.0521 60.9303 38.8573C60.5767 29.3089 52.5843 21.8116 43.0359 22.0238C33.5582 22.3067 26.2731 29.8747 25.9902 38.9987C25.7073 48.4057 32.6387 55.125 39.4287 56.5395C39.4287 56.3981 39.4287 56.1859 39.4287 56.0444C39.4287 55.125 39.358 54.2055 39.358 53.286C39.4287 51.0934 39.7823 48.9715 40.5603 46.9204C40.7018 46.5668 40.7018 46.5667 40.4896 46.2838C39.9238 45.5765 39.2165 44.94 38.4385 44.4449C37.7312 43.9498 37.0239 43.5254 36.3166 43.101C35.5386 42.6059 34.7606 42.1816 34.0533 41.6157C33.4167 41.1206 32.7802 40.5548 32.3558 39.8475C31.7192 38.928 31.4363 37.8671 31.3656 36.7354C31.2949 35.8159 31.4363 34.8965 31.6485 34.0477C31.6485 33.977 31.6485 33.977 31.7192 33.9063C32.0729 33.977 32.4265 34.0477 32.7094 34.1184C34.1947 34.4014 35.6093 34.8257 37.0239 35.4623C38.297 36.0281 39.4287 36.8061 40.4189 37.8671C41.4798 39.0695 42.0457 40.4133 42.2578 41.9694C42.3993 42.9596 42.3286 44.0205 42.1871 45.0107C42.1871 45.0814 42.1871 45.2229 42.1164 45.3644C42.3286 45.2229 42.3993 45.0107 42.5408 44.8693C42.6822 44.5863 42.6822 44.3034 42.6822 44.0205C42.6822 43.5961 42.6822 43.101 42.6822 42.6767C42.6822 42.4645 42.7529 42.323 42.8944 42.1816C43.6724 41.2621 44.3797 40.2719 44.9455 39.2109C45.6528 37.6549 46.0065 36.0989 46.0065 34.4014C45.9358 32.6331 45.5114 30.9356 44.8041 29.3089C44.1675 27.7528 43.2481 26.3383 42.3286 24.9237C42.2578 24.8529 42.2578 24.7822 42.1871 24.7822C42.1871 24.7822 42.1871 24.7822 42.1871 24.7115C42.2578 24.7115 42.2578 24.7822 42.3286 24.7822C43.6017 25.8432 44.7334 27.0455 45.7236 28.3894C46.5723 29.6625 47.1381 31.0771 47.3503 32.6331C47.4211 33.199 47.4211 33.7648 47.4211 34.4014C47.4211 34.4721 47.4211 34.4721 47.4211 34.5428C47.4918 34.3306 47.5625 34.0477 47.5625 33.8355C47.7747 32.9161 48.0576 31.9258 48.5527 31.0771C48.8356 30.582 49.1893 30.0869 49.6844 29.6625C50.5331 28.9552 51.4526 28.6723 52.5135 28.6723C53.5745 28.6723 54.5647 29.026 55.5549 29.3796C55.5549 29.3796 55.5549 29.3796 55.5549 29.4503C55.5549 29.4503 55.5549 29.4503 55.5549 29.5211C54.8476 29.9454 54.2818 30.5113 53.9281 31.2186C53.5745 31.7844 53.2916 32.421 53.0087 32.9868C52.7257 33.5526 52.4428 34.1184 52.0184 34.6843C51.3112 35.6038 50.3917 36.1696 49.26 36.3818C48.9064 36.4525 48.6235 36.4525 48.2698 36.5232C48.1991 36.5232 48.1284 36.5232 48.0576 36.5232C48.0576 36.7354 48.0576 36.8769 47.9869 37.0183C47.9162 37.9378 47.6333 38.8573 47.2796 39.706C46.7845 40.767 46.2894 41.8986 45.7943 42.9596C45.087 44.4449 44.3797 46.0009 43.8139 47.557C43.3188 49.113 42.9651 50.669 42.8237 52.2251C42.6822 53.5689 42.6822 54.9835 42.8237 56.3274C42.9651 57.6005 43.1773 58.8736 43.531 60.076C43.531 60.0053 43.531 60.0053 43.6017 60.076Z" fill="#38CB89"/>
<path d="M112.775 35.7452C112.775 37.867 112.775 39.8475 112.775 41.8986C112.562 41.9693 108.885 41.9693 108.531 41.8986C108.46 41.6864 108.46 22.731 108.531 22.4481C108.602 22.4481 108.672 22.4481 108.743 22.4481C111.643 22.4481 114.614 22.4481 117.514 22.4481C118.716 22.4481 119.918 22.5896 121.05 23.0847C123.101 23.9334 124.303 25.5602 124.657 27.7528C124.799 28.8845 124.728 29.9454 124.445 31.0771C124.021 32.5624 123.03 33.694 121.687 34.4013C121.333 34.6135 120.979 34.755 120.555 34.9672C122.111 37.2305 123.667 39.5645 125.294 41.8986C125.152 41.8986 125.082 41.8986 125.011 41.8986C123.525 41.8986 122.04 41.8986 120.555 41.8986C120.343 41.8986 120.272 41.8279 120.13 41.6864C118.857 39.7767 117.584 37.7963 116.24 35.8866C116.099 35.7452 116.028 35.6744 115.816 35.6744C114.897 35.6744 113.977 35.6744 112.987 35.6744C112.987 35.7452 112.916 35.7452 112.775 35.7452ZM112.775 31.9965C112.845 31.9965 112.916 31.9965 112.987 31.9965C114.401 31.9965 115.816 31.9965 117.16 31.9965C117.584 31.9965 118.009 31.9258 118.433 31.7843C119.352 31.5014 119.989 30.9356 120.201 30.0161C120.343 29.5917 120.343 29.1674 120.272 28.8137C120.201 27.8943 119.706 27.2577 118.928 26.8333C118.362 26.5504 117.726 26.4089 117.089 26.4089C115.675 26.4089 114.26 26.4089 112.845 26.4089C112.775 26.4089 112.704 26.4089 112.633 26.4089C112.775 28.2479 112.775 30.0869 112.775 31.9965Z" fill="#E9E9E9"/>
<path d="M91.6267 22.5188C91.6267 25.0651 91.6267 27.6113 91.6267 30.1576C91.8389 30.2283 99.1947 30.2283 99.5483 30.1576C99.5483 27.6113 99.5483 25.0651 99.5483 22.5188C100.963 22.5188 102.377 22.5188 103.792 22.5188C103.792 29.0259 103.792 35.4623 103.792 41.8986C103.58 41.9693 99.902 41.9693 99.5483 41.8986C99.5483 39.3523 99.5483 36.7354 99.5483 34.1891C99.3361 34.1184 92.051 34.1184 91.6267 34.1891C91.6267 36.7354 91.6267 39.3523 91.6267 41.8986C91.4145 41.9693 87.7366 41.9693 87.3829 41.8986C87.3829 35.3915 87.3829 28.9552 87.3829 22.4481C88.7975 22.5188 90.2121 22.5188 91.6267 22.5188Z" fill="#E9E9E9"/>
<path d="M132.932 30.2991C135.974 30.2991 139.015 30.2991 142.056 30.2991C142.127 30.5113 142.127 33.6941 142.056 34.1185C139.015 34.1185 135.974 34.1185 132.932 34.1185C132.932 35.4623 132.932 36.8062 132.932 38.2208C136.469 38.2208 139.935 38.2208 143.4 38.2208C143.471 38.4329 143.471 41.545 143.4 41.9694H143.33C138.52 41.9694 133.64 41.9694 128.83 41.9694H128.759C128.689 41.8279 128.689 22.8726 128.759 22.5189C133.64 22.5189 138.52 22.5189 143.4 22.5189C143.471 22.7311 143.471 25.8432 143.4 26.3383C142.552 26.3383 141.703 26.3383 140.854 26.3383C140.005 26.3383 139.157 26.3383 138.237 26.3383C137.388 26.3383 136.54 26.3383 135.62 26.3383C134.771 26.3383 133.923 26.3383 133.003 26.3383C132.932 27.6821 132.932 28.9553 132.932 30.2991Z" fill="#E9E9E9"/>
<path d="M151.534 36.1696C151.534 38.15 151.534 40.0597 151.534 41.9694C150.12 41.9694 148.705 41.9694 147.29 41.9694C147.29 35.4623 147.29 29.026 147.29 22.5189C147.361 22.5189 147.432 22.5189 147.503 22.5189C150.12 22.5189 152.807 22.5189 155.424 22.5189C156.768 22.5189 158.041 22.8018 159.244 23.3677C161.153 24.3579 162.285 25.9139 162.568 28.0358C162.78 29.1674 162.709 30.2991 162.426 31.36C161.931 33.0575 160.87 34.2599 159.385 35.1087C158.395 35.6745 157.263 35.9574 156.132 36.0989C155.566 36.1696 155.071 36.1696 154.505 36.1696C153.656 36.1696 152.807 36.1696 151.888 36.1696C151.746 36.1696 151.676 36.1696 151.534 36.1696ZM151.534 32.3503C151.605 32.3503 151.676 32.3503 151.676 32.3503C152.807 32.3503 153.868 32.3503 155 32.3503C155.354 32.3503 155.778 32.2795 156.132 32.2088C156.91 31.9966 157.546 31.5722 157.971 30.8649C158.324 30.2284 158.466 29.5211 158.324 28.7431C158.183 27.8943 157.758 27.2578 157.051 26.8334C156.414 26.4797 155.778 26.3383 155.071 26.3383C153.939 26.3383 152.878 26.3383 151.746 26.3383C151.676 26.3383 151.605 26.3383 151.534 26.3383C151.534 28.3894 151.534 30.3698 151.534 32.3503Z" fill="#E9E9E9"/>
<path d="M164.478 39.1402C165.326 38.15 166.175 37.0891 167.024 36.0989C167.448 36.3818 167.873 36.7355 168.297 37.0184C169.216 37.5842 170.136 38.0793 171.197 38.2915C172.116 38.5037 173.036 38.5744 173.955 38.3622C174.309 38.2915 174.592 38.15 174.875 38.0086C175.723 37.5135 175.794 36.6647 175.582 36.0282C175.511 35.7453 175.228 35.4623 175.016 35.3209C174.592 35.038 174.167 34.8258 173.672 34.6843C172.824 34.4014 171.904 34.1892 171.055 33.9063C170.136 33.6234 169.287 33.4112 168.438 32.9868C167.873 32.7039 167.307 32.3503 166.812 31.9259C166.175 31.3601 165.751 30.6528 165.538 29.8748C165.256 28.8138 165.256 27.7529 165.468 26.6919C165.892 25.0652 166.882 23.8628 168.368 23.0848C169.216 22.6604 170.136 22.3775 171.126 22.3067C173.248 22.0946 175.299 22.4482 177.209 23.3677C177.916 23.7213 178.623 24.1457 179.26 24.6408C179.26 24.6408 179.331 24.7115 179.401 24.7115C178.694 25.7725 177.916 26.8334 177.209 27.8943C176.997 27.7529 176.855 27.6822 176.714 27.5407C175.794 26.9749 174.875 26.4798 173.814 26.1968C173.036 25.9847 172.187 25.9139 171.338 26.0554C170.914 26.1261 170.56 26.2676 170.207 26.5505C169.429 27.1163 169.429 28.4602 170.207 29.026C170.631 29.3089 171.055 29.5211 171.55 29.6626C172.399 29.9455 173.177 30.1577 174.026 30.3699C175.158 30.6528 176.219 31.0064 177.279 31.5722C177.845 31.8552 178.34 32.2088 178.765 32.7039C179.472 33.4819 179.826 34.4014 179.967 35.4623C180.038 36.2404 180.038 37.0891 179.826 37.8671C179.401 39.4232 178.411 40.6256 176.997 41.3328C176.006 41.828 174.945 42.1109 173.884 42.1816C171.763 42.3938 169.711 42.0401 167.731 41.1207C166.67 40.6256 165.68 39.989 164.76 39.211C164.619 39.2817 164.548 39.211 164.478 39.1402Z" fill="#E9E9E9"/>
<path d="M68.0032 26.4797C68.0032 25.1359 68.0032 23.8628 68.0032 22.5189C73.3786 22.5189 78.754 22.5189 84.1294 22.5189C84.1294 23.8628 84.1294 25.1359 84.1294 26.4797C82.149 26.4797 80.2393 26.4797 78.2589 26.4797C78.2589 31.643 78.2589 36.8062 78.2589 41.9694C78.0467 42.0401 74.2981 42.0401 74.0152 41.9694C74.0152 36.8062 74.0152 31.7137 74.0152 26.4797C73.6615 26.409 73.3786 26.4797 73.0249 26.4797C72.6713 26.4797 72.3884 26.4797 72.0347 26.4797C71.6811 26.4797 71.3982 26.4797 71.0445 26.4797C70.6909 26.4797 70.408 26.4797 70.0543 26.4797C69.7007 26.4797 69.4178 26.4797 69.0641 26.4797C68.6398 26.4797 68.3568 26.4797 68.0032 26.4797Z" fill="#E9E9E9"/>
<path d="M188.101 41.9693C186.686 41.9693 185.272 41.9693 183.857 41.9693C183.857 35.4623 183.857 29.0259 183.857 22.5189C184.069 22.4481 187.818 22.4481 188.101 22.5189C188.101 22.7311 188.172 41.6864 188.101 41.9693Z" fill="#E9E9E9"/>
<path d="M109.45 56.681C109.167 56.681 108.885 56.681 108.531 56.681C108.177 55.6908 107.824 54.6298 107.47 53.5689C107.116 52.508 106.763 51.5178 106.409 50.4568H106.338C106.338 52.508 106.338 54.5591 106.338 56.6103C105.985 56.6103 105.702 56.6103 105.419 56.6103C105.419 54.1347 105.419 51.6592 105.419 49.1837C105.914 49.1837 106.409 49.1837 106.904 49.1837C107.611 51.3056 108.319 53.3567 109.026 55.4786C109.167 55.1957 109.238 54.9128 109.309 54.7006C109.38 54.4177 109.521 54.2055 109.592 53.9226C109.663 53.6396 109.804 53.3567 109.875 53.1445C109.945 52.8616 110.087 52.6494 110.158 52.3665C110.228 52.0836 110.37 51.8007 110.441 51.5885C110.511 51.3056 110.653 51.0934 110.723 50.8105C110.794 50.5276 110.936 50.2447 111.006 50.0325C111.077 49.7495 111.219 49.5374 111.289 49.2544C111.714 49.2544 112.138 49.2544 112.562 49.2544C112.562 51.73 112.562 54.2055 112.562 56.681C112.28 56.681 111.926 56.681 111.643 56.681C111.643 54.6299 111.643 52.6494 111.643 50.669H111.572C110.865 52.6494 110.158 54.7006 109.45 56.681Z" fill="#E9E9E9"/>
<path d="M127.769 56.681C127.486 56.681 127.203 56.681 126.85 56.681C126.779 56.681 126.708 56.6103 126.638 56.5396C126.496 56.3274 126.284 56.0445 126.142 55.8323C125.082 54.2763 124.021 52.7202 122.96 51.0934C122.889 51.0227 122.889 50.952 122.747 50.8813C122.747 52.7909 122.747 54.7006 122.747 56.6103C122.394 56.6103 122.111 56.6103 121.828 56.6103C121.828 54.1348 121.828 51.6593 121.828 49.113C122.182 49.113 122.465 49.113 122.747 49.113C122.818 49.113 122.889 49.1838 122.96 49.2545C123.313 49.8203 123.738 50.3862 124.091 50.952C124.94 52.1544 125.718 53.4275 126.567 54.6299C126.638 54.7006 126.638 54.7714 126.779 54.8421C126.779 52.9324 126.779 51.0227 126.779 49.113C127.133 49.113 127.416 49.113 127.699 49.113C127.769 49.4667 127.769 56.3274 127.769 56.681Z" fill="#E9E9E9"/>
<path d="M172.541 51.3056C172.258 51.3764 171.975 51.4471 171.692 51.5178C171.621 51.3764 171.621 51.3056 171.55 51.2349C171.338 50.5276 170.843 50.174 170.136 50.0325C169.57 49.891 169.004 49.9618 168.438 50.174C167.802 50.3862 167.377 50.8105 167.095 51.4471C166.67 52.4373 166.67 53.4275 167.024 54.4177C167.377 55.3372 168.085 55.8323 169.004 55.9737C169.924 56.1152 170.772 55.903 171.55 55.3372C171.692 55.2665 171.692 55.1957 171.692 55.0543C171.692 54.7006 171.692 54.347 171.692 54.0641C171.692 53.9933 171.692 53.9226 171.692 53.8519C170.985 53.8519 170.277 53.8519 169.57 53.8519C169.57 53.569 169.57 53.286 169.57 53.0031C169.782 52.9324 172.399 52.9324 172.682 53.0031C172.682 53.0739 172.682 53.1446 172.682 53.2153C172.682 53.9933 172.682 54.7713 172.682 55.5494C172.682 55.6908 172.611 55.7616 172.541 55.903C171.692 56.5396 170.772 56.8932 169.782 56.8932C169.004 56.8932 168.226 56.7518 167.59 56.3981C166.812 55.9737 166.246 55.2665 166.034 54.347C165.68 53.2153 165.821 52.0836 166.317 51.0227C166.67 50.3154 167.236 49.7496 168.014 49.4667C169.075 49.113 170.136 49.0423 171.126 49.4667C171.904 49.7496 172.328 50.4569 172.541 51.3056Z" fill="#E9E9E9"/>
<path d="M176.219 53.0031C176.219 52.3666 176.36 51.73 176.572 51.1642C177.067 50.0325 177.987 49.396 179.189 49.1838C179.826 49.1131 180.392 49.1131 180.957 49.3252C181.877 49.6082 182.513 50.174 182.938 51.0227C183.504 52.2959 183.504 53.6397 182.938 54.9128C182.513 55.903 181.735 56.4689 180.745 56.6811C179.896 56.8932 179.048 56.8225 178.27 56.4689C177.138 55.9738 176.572 55.0543 176.289 53.8519C176.289 53.569 176.219 53.2861 176.219 53.0031ZM182.372 53.0739C182.372 52.791 182.301 52.508 182.301 52.2959C182.231 51.8008 182.018 51.3057 181.665 50.8813C181.028 50.1033 180.179 49.8911 179.26 50.1033C178.34 50.3154 177.704 50.8813 177.492 51.8008C177.421 52.1544 177.35 52.508 177.35 52.8617C177.279 53.4275 177.35 53.9934 177.562 54.5592C177.987 55.4787 178.694 56.0445 179.684 56.1152C181.099 56.186 182.018 55.3372 182.301 54.2055C182.301 53.7104 182.301 53.3568 182.372 53.0739Z" fill="#E9E9E9"/>
<path d="M159.456 53.0031C159.456 53.6397 159.314 54.2055 159.102 54.7713C158.678 55.7615 157.97 56.3981 156.98 56.7517C155.778 57.1054 154.646 56.9639 153.656 56.1859C153.019 55.6908 152.666 55.0542 152.454 54.347C152.171 53.2153 152.241 52.0836 152.737 51.0227C153.232 50.0325 154.01 49.4667 155.141 49.2545C155.919 49.113 156.697 49.1837 157.405 49.5374C158.395 50.0325 159.031 50.8105 159.244 51.9422C159.385 52.2251 159.385 52.5787 159.456 53.0031ZM158.395 52.8616C158.395 52.7202 158.324 52.3665 158.253 52.0129C157.97 50.7398 157.051 50.1032 156.132 49.9618C155.071 49.8203 153.797 50.3861 153.444 51.8007C153.302 52.4373 153.232 53.0738 153.373 53.7104C153.585 55.125 154.646 56.0444 155.99 55.9737C156.91 55.903 157.617 55.4786 158.041 54.7006C158.324 54.1348 158.395 53.5689 158.395 52.8616Z" fill="#E9E9E9"/>
<path d="M131.589 54.2763C131.872 54.2763 132.154 54.2055 132.508 54.2055C132.508 54.2763 132.579 54.347 132.579 54.4177C132.72 54.9835 133.003 55.4079 133.569 55.6908C134.276 55.9737 134.984 56.0445 135.691 55.7616C136.115 55.6201 136.398 55.4079 136.54 54.9128C136.681 54.4884 136.54 54.0641 136.186 53.8519C135.974 53.7104 135.691 53.569 135.479 53.4982C134.913 53.3568 134.347 53.2153 133.781 53.0739C133.498 53.0031 133.145 52.8617 132.862 52.7202C132.225 52.3666 131.872 51.8715 131.942 51.1642C131.942 50.4569 132.296 49.8911 132.932 49.4667C133.428 49.1838 133.923 49.113 134.488 49.113C135.054 49.113 135.549 49.1838 136.115 49.396C136.964 49.7496 137.388 50.5983 137.388 51.3056C137.247 51.3056 137.105 51.3056 136.964 51.3764C136.823 51.3764 136.681 51.3764 136.54 51.3764C136.54 51.3056 136.469 51.3056 136.469 51.2349C136.327 50.4569 135.903 50.1032 135.125 49.9618C134.771 49.8911 134.347 49.8911 133.993 50.0325C133.71 50.1032 133.428 50.2447 133.215 50.4569C132.791 50.952 132.932 51.6593 133.498 51.8715C133.923 52.0129 134.347 52.1544 134.771 52.2958C135.196 52.4373 135.549 52.508 135.974 52.5788C136.398 52.7202 136.752 52.8617 137.035 53.1446C137.742 53.7812 137.813 54.9128 137.318 55.6908C136.964 56.1859 136.469 56.5396 135.832 56.681C134.913 56.8932 133.993 56.8225 133.145 56.4689C132.296 56.0445 131.872 55.3372 131.73 54.4177C131.518 54.4177 131.589 54.347 131.589 54.2763Z" fill="#E9E9E9"/>
<path d="M102.236 56.6809C101.882 56.6809 101.458 56.6809 101.104 56.6809C100.821 55.9736 100.539 55.1956 100.256 54.4176C99.1947 54.4176 98.2045 54.4176 97.1435 54.4176C96.8606 55.1249 96.5777 55.9029 96.3655 56.6809C96.0119 56.6809 95.6582 56.6809 95.3046 56.6809C96.224 54.2054 97.2143 51.7299 98.1337 49.2544C98.4874 49.2544 98.841 49.2544 99.1947 49.2544C100.185 51.7299 101.246 54.2054 102.236 56.6809ZM99.902 53.6396C99.4776 52.4372 99.0532 51.3055 98.5581 50.1031C98.2752 51.3763 97.7801 52.4372 97.3557 53.6396C98.2752 53.6396 99.0532 53.6396 99.902 53.6396Z" fill="#E9E9E9"/>
<path d="M75.9956 55.7615C76.7736 53.5689 77.6223 51.4471 78.4003 49.2545C78.754 49.2545 79.0369 49.2545 79.3906 49.2545C78.4004 51.73 77.4809 54.2055 76.4907 56.681C76.137 56.681 75.7834 56.681 75.4297 56.681C74.5103 54.2055 73.5201 51.73 72.5298 49.2545C72.742 49.1837 72.8835 49.2545 73.0249 49.2545C73.1664 49.2545 73.3786 49.2545 73.5908 49.2545C74.0152 50.3154 74.3688 51.4471 74.7932 52.508C75.2175 53.5689 75.5712 54.7006 75.9956 55.7615Z" fill="#E9E9E9"/>
<path d="M145.876 50.1031C145.027 50.1031 144.249 50.1031 143.471 50.1031C143.471 49.8202 143.471 49.5373 143.471 49.2544C145.451 49.2544 147.361 49.2544 149.342 49.2544C149.342 49.5373 149.342 49.8202 149.342 50.1031C148.564 50.1031 147.715 50.1031 146.937 50.1031C146.937 50.4568 146.937 50.7397 146.937 51.0226C146.937 51.3055 146.937 51.6592 146.937 51.9421C146.937 52.225 146.937 52.5787 146.937 52.8616C146.937 53.1445 146.937 53.4981 146.937 53.781C146.937 54.064 146.937 54.4176 146.937 54.7005C146.937 54.9834 146.937 55.3371 146.937 55.62C146.937 55.9029 146.937 56.2566 146.937 56.6102C146.583 56.6102 146.3 56.6102 145.947 56.6102C145.947 56.3273 145.947 56.0444 145.947 55.7615C145.947 55.4785 145.947 55.1956 145.947 54.9127C145.947 54.6298 145.947 54.3469 145.947 54.064C145.947 53.781 145.947 53.4981 145.947 53.2152C145.947 52.9323 145.947 52.6494 145.947 52.4372C145.947 52.1543 145.947 51.8714 145.947 51.5885C145.947 51.3055 145.947 51.0226 145.947 50.7397C145.876 50.669 145.876 50.3861 145.876 50.1031Z" fill="#E9E9E9"/>
<path d="M89.9292 50.1032C89.0804 50.1032 88.3024 50.1032 87.4536 50.1032C87.4536 49.8203 87.4536 49.5374 87.4536 49.2545C87.5951 49.1837 93.0412 49.1837 93.3242 49.2545C93.3242 49.5374 93.3242 49.8203 93.3242 50.1032C92.5461 50.1032 91.6974 50.1032 90.9194 50.1032C90.9194 50.2447 90.9194 50.3154 90.9194 50.4569C90.9194 52.4373 90.9194 54.4177 90.9194 56.3981C90.9194 56.5395 90.9194 56.6103 90.9194 56.7517C90.5657 56.7517 90.2828 56.7517 89.9292 56.7517C89.9292 56.681 89.9292 56.5396 89.9292 56.4688C89.9292 54.4884 89.9292 52.508 89.9292 50.5276C89.9292 50.3861 89.9292 50.2447 89.9292 50.1032Z" fill="#E9E9E9"/>
<path d="M83.8465 56.6809C83.4928 56.6809 83.2099 56.6809 82.8563 56.6809C82.8563 54.2054 82.8563 51.7299 82.8563 49.2544C82.927 49.2544 82.927 49.2544 82.9977 49.2544C83.2806 49.2544 83.5636 49.2544 83.8465 49.2544C83.8465 51.7299 83.8465 54.2054 83.8465 56.6809Z" fill="#E9E9E9"/>
<path d="M117.726 56.6809C117.372 56.6809 117.089 56.6809 116.735 56.6809C116.735 54.2054 116.735 51.7299 116.735 49.2544C117.018 49.2544 117.372 49.2544 117.726 49.2544C117.726 51.7299 117.726 54.2054 117.726 56.6809Z" fill="#E9E9E9"/>
</svg>
