<svg width="80" height="53" viewBox="0 0 80 53" fill="none" xmlns="http://www.w3.org/2000/svg">
<path d="M55.1916 8.49233H22.592C22.0441 8.49233 21.5958 8.04405 21.5958 7.49616V1.14558C21.5958 0.59769 22.0441 0.149414 22.592 0.149414H57.9809C58.5288 0.149414 58.977 0.59769 58.977 1.14558L55.1916 8.49233Z" fill="url(#paint0_linear_2_6)"/>
<path d="M45.479 21.1685H22.6169C22.069 21.1685 21.6207 20.7203 21.6207 20.1724V13.8218C21.6207 13.2739 22.069 12.8256 22.6169 12.8256H48.2682C48.8161 12.8256 49.2644 13.2739 49.2644 13.8218L45.479 21.1685Z" fill="url(#paint1_linear_2_6)"/>
<path d="M55.1916 29.8103L59.002 52.1245H23.1648C22.2931 52.1245 21.5958 51.4272 21.5958 50.5555V27.046C21.5958 26.1743 22.2931 25.477 23.1648 25.477H28.4196C29.2912 25.477 29.9885 26.1743 29.9885 27.046V42.2126C29.9885 43.0843 30.6859 43.7816 31.5575 43.7816H49.115C49.9866 43.7816 50.6839 43.0843 50.6839 42.2126V39.7471C50.6839 38.8755 49.9866 38.1781 49.115 38.1781H44.7817C43.91 38.1781 43.2127 37.4808 43.2127 36.6092V31.3544C43.2127 30.4827 43.91 29.7854 44.7817 29.7854H55.1916V29.8103Z" fill="url(#paint2_linear_2_6)"/>
<path d="M72.5498 26.249V26.1494C70.9061 25.8256 69.7107 25.203 68.9387 24.2567C68.1667 23.3103 67.7931 21.9904 67.7931 20.2969C67.7931 19.3506 67.9176 18.0057 68.1418 16.2375C68.4157 14.544 68.5402 13.0747 68.5402 11.8295C68.5402 8.89078 67.9675 6.52489 66.8219 4.70688C65.6763 2.88887 64.2318 1.61876 62.4636 0.871629V0.249023H70.5575C71.3295 0.597682 72.1514 1.22029 73.0479 2.09194C73.9445 2.96358 74.7414 4.2337 75.4138 5.90228C76.1111 7.57086 76.4598 9.5881 76.4598 11.954C76.4598 12.8755 76.41 13.772 76.2855 14.6935C76.1609 15.6149 76.0862 16.1877 76.0613 16.387C75.7874 17.9808 75.6629 19.3257 75.6629 20.4712C75.6629 21.6168 75.9866 22.5881 76.6341 23.385C77.2816 24.182 78.3774 24.6053 79.9464 24.705V27.6188C78.4521 27.7184 77.3563 28.1417 76.6839 28.9387C76.0115 29.7356 75.6629 30.7069 75.6629 31.8525C75.6629 32.9981 75.7874 34.3678 76.0613 35.9368C76.0862 36.136 76.1609 36.7088 76.2855 37.6302C76.41 38.5517 76.4598 39.4732 76.4598 40.3697C76.4598 42.7356 76.1111 44.7528 75.4138 46.4214C74.7165 48.09 73.9445 49.3601 73.0479 50.2318C72.1514 51.1034 71.3295 51.726 70.5575 52.0747H62.4636V51.4521C64.2318 50.7299 65.6763 49.4348 66.8219 47.6168C67.9675 45.7988 68.5402 43.4329 68.5402 40.4942C68.5402 39.1992 68.4157 37.7299 68.1418 36.0862C67.9176 34.318 67.7931 32.9732 67.7931 32.0268C67.7931 30.3333 68.1916 29.0134 68.9636 28.067C69.7357 27.1954 70.9311 26.5728 72.5498 26.249Z" fill="url(#paint3_linear_2_6)"/>
<path d="M11.6341 28.1417C12.4062 29.0881 12.8046 30.408 12.8046 32.1015C12.8046 33.0479 12.6801 34.3927 12.456 36.1609C12.182 37.8046 12.0575 39.2739 12.0575 40.5689C12.0575 43.5076 12.6303 45.8735 13.7759 47.6916C14.9215 49.5096 16.3659 50.7797 18.1341 51.5268V52.1494H10.0403C9.26823 51.8007 8.44639 51.1781 7.54984 50.3065C6.65329 49.4348 5.85635 48.1647 5.18394 46.4962C4.48662 44.8276 4.13796 42.8103 4.13796 40.4444C4.13796 39.523 4.18777 38.6264 4.31229 37.705C4.43681 36.7835 4.51152 36.2107 4.53643 36.0115C4.81037 34.4176 4.93489 33.0728 4.93489 31.9272C4.93489 30.7816 4.58624 29.8103 3.91382 29.0134C3.24141 28.2165 2.14562 27.7931 0.651367 27.6935V24.7797C2.19543 24.6801 3.31612 24.2567 3.96363 23.4598C4.61114 22.6628 4.93489 21.6915 4.93489 20.546C4.93489 19.4004 4.81037 18.0306 4.53643 16.4617C4.51152 16.2624 4.43681 15.6896 4.31229 14.7682C4.18777 13.8467 4.13796 12.9253 4.13796 12.0287C4.13796 9.66281 4.48662 7.64557 5.18394 5.97699C5.88125 4.3084 6.65329 3.03829 7.54984 2.16664C8.44639 1.295 9.26823 0.67239 10.0403 0.32373H18.1341V0.946336C16.3659 1.66856 14.9215 2.96358 13.7759 4.78159C12.6303 6.59959 12.0575 8.96549 12.0575 11.9042C12.0575 13.1245 12.182 14.5938 12.456 16.3122C12.6801 18.0804 12.8046 19.4253 12.8046 20.3716C12.8046 22.0651 12.4311 23.385 11.659 24.3314C10.887 25.2778 9.6916 25.9004 8.04792 26.2241V26.3237C9.6667 26.5728 10.8621 27.1954 11.6341 28.1417Z" fill="url(#paint4_linear_2_6)"/>
<defs>
<linearGradient id="paint0_linear_2_6" x1="21.5961" y1="4.29893" x2="59.0016" y2="4.29893" gradientUnits="userSpaceOnUse">
<stop offset="1.38522e-07" stop-color="#ED364A"/>
<stop offset="1" stop-color="#F15528"/>
</linearGradient>
<linearGradient id="paint1_linear_2_6" x1="21.5961" y1="16.9809" x2="49.2864" y2="16.9809" gradientUnits="userSpaceOnUse">
<stop offset="1.38522e-07" stop-color="#ED364A"/>
<stop offset="1" stop-color="#F15528"/>
</linearGradient>
<linearGradient id="paint2_linear_2_6" x1="21.5961" y1="38.8013" x2="59.0017" y2="38.8013" gradientUnits="userSpaceOnUse">
<stop offset="1.38522e-07" stop-color="#ED364A"/>
<stop offset="1" stop-color="#F15528"/>
</linearGradient>
<linearGradient id="paint3_linear_2_6" x1="62.4668" y1="26.2019" x2="79.9387" y2="26.2019" gradientUnits="userSpaceOnUse">
<stop offset="1.38522e-07" stop-color="#ED364A"/>
<stop offset="1" stop-color="#F15528"/>
</linearGradient>
<linearGradient id="paint4_linear_2_6" x1="0.659087" y1="26.2019" x2="18.131" y2="26.2019" gradientUnits="userSpaceOnUse">
<stop offset="1.38522e-07" stop-color="#ED364A"/>
<stop offset="1" stop-color="#F15528"/>
</linearGradient>
</defs>
</svg>
